<?xml version="1.0" standalone="no"?>
<!DOCTYPE svg PUBLIC "-//W3C//DTD SVG 1.0//EN"
"http://www.w3.org/TR/2001/REC-SVG-20010904/DTD/svg10.dtd">

<svg width="417px" height="418px" viewBox="0 0 417 418" version="1.0" xmlns="http://www.w3.org/2000/svg">

 <path d=" M 331.00 107.00 L 270.00 167.00 L 365.00 338.00 L 406.00 105.00 L 337.00 100.00 L 44.00 51.00 L 151.00 216.00 L 109.00 231.00 L 136.00 146.00 L 366.00 55.00 L 171.00 168.00 L 92.00 171.00 L 142.00 358.00 L 52.00 402.00 L 274.00 210.00 L 81.00 293.00 L 39.00 338.00 L 325.00 210.00 L 235.00 348.00 L 202.00 391.00 L 205.00 14.00 L 56.00 365.00 L 263.00 111.00 L 138.00 104.00 L 155.00 310.00 L 60.00 204.00 L 12.00 218.00 L 328.00 50.00 L 400.00 10.00 L 65.00 235.00 L 21.00 78.00 L 47.00 388.00 L 114.00 285.00 L 397.00 314.00 L 208.00 176.00 L 191.00 384.00 L 153.00 119.00 L 280.00 191.00 L 335.00 267.00 L 155.00 238.00 L 272.00 227.00 L 304.00 50.00 L 200.00 155.00 L 137.00 327.00 L 407.00 34.00 L 357.00 208.00 L 261.00 242.00 L 245.00 299.00 L 228.00 22.00 L 318.00 280.00 L 277.00 103.00 L 62.00 380.00 L 157.00 71.00 L 274.00 273.00 L 297.00 322.00 L 71.00 80.00 L 95.00 289.00 L 112.00 370.00 L 391.00 129.00 L 216.00 67.00 L 267.00 52.00 L 56.00 392.00 L 203.00 295.00 L 283.00 162.00 L 227.00 291.00 L 287.00 132.00 L 97.00 119.00 L 223.00 242.00 L 209.00 54.00 L 271.00 42.00 L 172.00 61.00 L 56.00 87.00 L 81.00 120.00 L 37.00 67.00 L 306.00 278.00 L 285.00 173.00 L 290.00 218.00 L 161.00 348.00 L 285.00 147.00 L 56.00 323.00 L 377.00 334.00 L 42.00 117.00 L 252.00 106.00 L 170.00 314.00 L 78.00 124.00 L 71.00 259.00 L 80.00 53.00 L 196.00 122.00 L 365.00 177.00 L 167.00 334.00 L 256.00 385.00 L 47.00 158.00 L 102.00 315.00 L 42.00 163.00 L 309.00 159.00 L 309.00 195.00 L 350.00 222.00 L 389.00 371.00 L 351.00 119.00 L 214.00 109.00 z"
 style="fill:#00009c; fill-opacity:0.13; fill-rule:evenodd; stroke:#d3d3da; stroke-opacity:1.00; stroke-width:0.80;"/>

 <path d=" M 11.00 98.00 L 210.00 403.00 L 302.00 80.00 L 132.00 290.00 L 92.00 82.00 L 94.00 154.00 L 249.00 249.00 L 327.00 205.00 L 238.00 30.00 L 169.00 214.00 L 267.00 372.00 L 378.00 141.00 L 296.00 26.00 L 105.00 360.00 L 401.00 133.00 L 92.00 19.00 L 65.00 94.00 L 328.00 147.00 L 13.00 344.00 L 224.00 71.00 L 116.00 356.00 L 145.00 400.00 L 390.00 56.00 L 270.00 275.00 L 179.00 45.00 L 183.00 269.00 L 149.00 408.00 L 47.00 55.00 L 145.00 252.00 L 302.00 233.00 L 234.00 142.00 L 292.00 403.00 L 342.00 393.00 L 368.00 186.00 L 181.00 291.00 L 384.00 48.00 L 175.00 288.00 L 153.00 72.00 L 142.00 69.00 L 138.00 136.00 L 284.00 143.00 L 396.00 319.00 L 173.00 277.00 L 92.00 345.00 L 336.00 203.00 L 364.00 369.00 L 146.00 249.00 L 118.00 134.00 L 260.00 12.00 L 243.00 177.00 L 207.00 155.00 L 12.00 182.00 L 149.00 92.00 L 319.00 25.00 L 265.00 136.00 L 115.00 259.00 L 289.00 172.00 L 255.00 245.00 L 251.00 98.00 L 136.00 124.00 L 158.00 79.00 L 10.00 134.00 L 162.00 142.00 L 234.00 356.00 L 275.00 365.00 L 201.00 160.00 L 82.00 279.00 L 395.00 272.00 L 60.00 258.00 L 344.00 236.00 L 47.00 217.00 L 307.00 93.00 L 75.00 12.00 L 378.00 54.00 L 21.00 342.00 L 93.00 280.00 L 338.00 48.00 L 130.00 320.00 L 65.00 325.00 L 151.00 51.00 L 57.00 198.00 L 330.00 238.00 L 294.00 126.00 L 70.00 327.00 L 46.00 200.00 L 239.00 376.00 L 169.00 160.00 L 368.00 93.00 L 336.00 343.00 L 19.00 43.00 L 21.00 331.00 L 129.00 372.00 L 52.00 278.00 L 314.00 40.00 L 136.00 86.00 L 103.00 14.00 L 192.00 189.00 L 318.00 403.00 L 291.00 74.00 L 165.00 226.00 z"
 style="fill:#9c0000; fill-opacity:0.13; fill-rule:evenodd; stroke:#ffa07a; stroke-opacity:1.00; stroke-width:0.80;"/>

 <path d=" M 202.00 342.00 L 202.00 354.00 L 221.00 365.00 L 220.00 367.00 L 202.00 391.00 L 202.00 354.00 L 194.00 349.00 L 195.00 336.00 z M 192.00 375.00 L 189.00 371.00 L 185.00 345.00 L 194.00 349.00 z M 225.00 329.00 L 228.00 339.00 L 228.00 341.00 L 231.00 353.00 L 229.00 356.00 L 234.00 361.00 L 239.00 375.00 L 237.00 374.00 L 224.00 362.00 L 229.00 356.00 L 225.00 351.00 L 228.00 341.00 L 224.00 329.00 z M 123.00 367.00 L 120.00 369.00 L 116.00 367.00 L 120.00 363.00 z M 135.00 361.00 L 125.00 367.00 L 121.00 362.00 L 133.00 352.00 z M 118.00 350.00 L 114.00 353.00 L 114.00 354.00 L 109.00 357.00 L 111.00 365.00 L 102.00 362.00 L 105.00 359.00 L 105.00 360.00 L 108.00 358.00 L 109.00 357.00 L 114.00 353.00 L 111.00 351.00 L 121.00 342.00 z M 101.00 338.00 L 92.00 345.00 L 102.00 339.00 L 101.00 338.00 L 105.00 334.00 L 105.00 337.00 L 102.00 339.00 L 107.00 345.00 L 108.00 353.00 L 100.00 361.00 L 82.00 354.00 L 98.00 334.00 z M 109.00 354.00 L 108.00 353.00 L 109.00 352.00 z M 95.00 330.00 L 80.00 353.00 L 72.00 350.00 L 87.00 327.00 L 90.00 324.00 z M 147.00 301.00 L 154.00 309.00 L 153.00 309.00 L 150.00 311.00 L 151.00 312.00 L 138.00 326.00 L 140.00 326.00 L 135.00 331.00 L 136.00 336.00 L 130.00 341.00 L 130.00 343.00 L 118.00 351.00 L 118.00 350.00 L 130.00 341.00 L 128.00 336.00 L 135.00 331.00 L 133.00 326.00 L 128.00 325.00 L 128.00 324.00 L 132.00 322.00 L 133.00 326.00 L 137.00 326.00 L 137.00 327.00 L 138.00 326.00 L 137.00 326.00 L 141.00 317.00 L 150.00 311.00 L 145.00 304.00 L 147.00 301.00 L 146.00 300.00 L 147.00 298.00 z M 241.00 329.00 L 244.00 335.00 L 235.00 348.00 L 232.00 351.00 L 228.00 339.00 L 231.00 329.00 z M 87.00 327.00 L 73.00 344.00 L 71.00 350.00 L 69.00 349.00 L 73.00 344.00 L 79.00 324.00 L 89.00 324.00 z M 70.00 325.00 L 70.00 327.00 L 73.00 324.00 L 64.00 347.00 L 43.00 339.00 L 43.00 336.00 L 69.00 325.00 L 70.00 325.00 L 69.00 324.00 L 71.00 324.00 L 69.00 323.00 L 68.00 314.00 L 69.00 313.00 L 76.00 308.00 L 79.00 311.00 L 74.00 322.00 L 71.00 324.00 L 73.00 324.00 z M 169.00 340.00 L 165.00 344.00 L 165.00 341.00 L 167.00 338.00 z M 42.00 334.00 L 43.00 336.00 L 39.00 338.00 L 42.00 334.00 L 42.00 326.00 L 62.00 313.00 z M 354.00 319.00 L 356.00 322.00 L 358.00 333.00 L 350.00 333.00 L 351.00 317.00 z M 337.00 308.00 L 340.00 310.00 L 337.00 333.00 L 325.00 332.00 L 311.00 319.00 L 310.00 305.00 z M 300.00 304.00 L 298.00 307.00 L 311.00 319.00 L 312.00 332.00 L 295.00 331.00 L 288.00 327.00 L 293.00 318.00 L 297.00 322.00 L 294.00 315.00 L 298.00 307.00 L 294.00 303.00 z M 253.00 292.00 L 268.00 295.00 L 268.00 297.00 L 266.00 301.00 L 269.00 301.00 L 273.00 319.00 L 288.00 327.00 L 287.00 331.00 L 276.00 331.00 L 273.00 319.00 L 266.00 315.00 L 262.00 307.00 L 266.00 301.00 L 257.00 300.00 L 253.00 292.00 L 248.00 291.00 L 248.00 289.00 L 249.00 285.00 z M 266.00 315.00 L 275.00 331.00 L 262.00 330.00 L 257.00 314.00 L 259.00 311.00 z M 203.00 280.00 L 206.00 282.00 L 205.00 283.00 L 209.00 284.00 L 208.00 287.00 L 203.00 291.00 L 203.00 306.00 L 197.00 310.00 L 197.00 312.00 L 193.00 316.00 L 196.00 320.00 L 196.00 328.00 L 186.00 327.00 L 183.00 325.00 L 193.00 316.00 L 191.00 315.00 L 197.00 310.00 L 198.00 298.00 L 203.00 295.00 L 203.00 294.00 L 200.00 294.00 L 203.00 291.00 L 203.00 285.00 L 205.00 283.00 L 203.00 283.00 L 203.00 280.00 L 204.00 278.00 L 207.00 277.00 L 207.00 276.00 L 206.00 274.00 L 208.00 276.00 L 207.00 276.00 L 207.00 278.00 z M 162.00 327.00 L 161.00 328.00 L 160.00 327.00 z M 169.00 327.00 L 162.00 327.00 L 171.00 319.00 z M 156.00 321.00 L 149.00 326.00 L 140.00 326.00 L 153.00 315.00 z M 126.00 325.00 L 125.00 325.00 L 128.00 320.00 L 130.00 320.00 L 131.00 317.00 L 131.00 318.00 L 128.00 324.00 z M 131.00 315.00 L 128.00 320.00 L 124.00 320.00 L 125.00 325.00 L 116.00 325.00 L 121.00 321.00 L 124.00 320.00 L 123.00 319.00 L 130.00 313.00 z M 79.00 257.00 L 75.00 257.00 L 73.00 259.00 L 79.00 259.00 L 61.00 281.00 L 63.00 291.00 L 70.00 300.00 L 66.00 304.00 L 66.00 306.00 L 42.00 325.00 L 42.00 324.00 L 66.00 304.00 L 63.00 291.00 L 58.00 286.00 L 61.00 281.00 L 59.00 271.00 L 73.00 259.00 L 71.00 258.00 L 71.00 257.00 L 75.00 257.00 L 78.00 254.00 z M 165.00 304.00 L 169.00 311.00 L 168.00 311.00 L 169.00 312.00 L 170.00 314.00 L 170.00 313.00 L 172.00 315.00 L 172.00 316.00 L 159.00 324.00 L 156.00 321.00 L 168.00 311.00 L 163.00 306.00 L 165.00 304.00 L 165.00 303.00 L 171.00 299.00 z M 198.00 294.00 L 200.00 294.00 L 198.00 296.00 L 198.00 298.00 L 187.00 305.00 L 185.00 308.00 L 191.00 315.00 L 182.00 322.00 L 182.00 324.00 L 181.00 323.00 L 182.00 322.00 L 181.00 315.00 L 185.00 308.00 L 184.00 307.00 L 187.00 305.00 L 188.00 304.00 L 198.00 296.00 L 198.00 294.00 L 195.00 293.00 L 197.00 289.00 L 199.00 288.00 z M 213.00 297.00 L 204.00 305.00 L 203.00 306.00 L 203.00 319.00 L 199.00 324.00 L 196.00 320.00 L 197.00 312.00 L 213.00 296.00 z M 89.00 323.00 L 90.00 324.00 L 89.00 324.00 L 89.00 323.00 L 96.00 312.00 L 100.00 311.00 L 90.00 323.00 z M 66.00 323.00 L 56.00 323.00 L 68.00 314.00 z M 74.00 323.00 L 74.00 322.00 L 76.00 321.00 z M 116.00 295.00 L 118.00 302.00 L 109.00 307.00 L 101.00 319.00 L 102.00 322.00 L 99.00 322.00 L 101.00 319.00 L 100.00 311.00 L 100.00 310.00 L 99.00 307.00 L 111.00 290.00 L 114.00 287.00 L 114.00 285.00 L 117.00 285.00 L 114.00 287.00 L 115.00 292.00 L 100.00 310.00 L 100.00 311.00 L 109.00 307.00 z M 123.00 319.00 L 121.00 321.00 L 107.00 322.00 L 120.00 306.00 z M 349.00 309.00 L 352.00 309.00 L 352.00 311.00 L 354.00 311.00 L 356.00 320.00 L 354.00 319.00 L 352.00 314.00 L 352.00 311.00 L 350.00 310.00 L 349.00 309.00 L 340.00 308.00 L 342.00 297.00 z M 181.00 315.00 L 178.00 320.00 L 174.00 317.00 L 181.00 311.00 L 180.00 310.00 L 185.00 307.00 L 180.00 302.00 L 192.00 293.00 L 195.00 293.00 L 188.00 304.00 L 181.00 311.00 z M 99.00 307.00 L 99.00 308.00 L 96.00 312.00 L 84.00 318.00 L 83.00 316.00 L 97.00 303.00 z M 83.00 316.00 L 81.00 317.00 L 82.00 315.00 z M 369.00 293.00 L 372.00 296.00 L 371.00 303.00 L 373.00 312.00 L 380.00 312.00 L 381.00 316.00 L 374.00 315.00 L 373.00 312.00 L 370.00 311.00 L 371.00 303.00 L 369.00 293.00 L 356.00 284.00 L 357.00 273.00 L 363.00 273.00 z M 180.00 310.00 L 172.00 315.00 L 174.00 307.00 L 179.00 303.00 z M 370.00 311.00 L 369.00 314.00 L 354.00 311.00 L 354.00 310.00 z M 377.00 288.00 L 378.00 300.00 L 389.00 308.00 L 393.00 314.00 L 380.00 312.00 L 378.00 300.00 L 372.00 296.00 L 374.00 285.00 z M 49.00 216.00 L 47.00 217.00 L 49.00 217.00 L 59.00 271.00 L 52.00 278.00 L 58.00 286.00 L 40.00 309.00 L 32.00 212.00 L 47.00 208.00 z M 159.00 303.00 L 155.00 308.00 L 154.00 299.00 z M 86.00 275.00 L 82.00 279.00 L 88.00 279.00 L 89.00 283.00 L 74.00 296.00 L 73.00 300.00 L 71.00 301.00 L 72.00 302.00 L 72.00 303.00 L 67.00 309.00 L 66.00 306.00 L 71.00 301.00 L 70.00 300.00 L 74.00 296.00 L 83.00 267.00 z M 176.00 298.00 L 174.00 307.00 L 172.00 308.00 L 176.00 298.00 L 175.00 297.00 L 177.00 295.00 z M 72.00 303.00 L 72.00 302.00 L 73.00 300.00 L 79.00 295.00 z M 90.00 289.00 L 87.00 297.00 L 84.00 300.00 L 88.00 290.00 L 90.00 289.00 L 91.00 286.00 L 92.00 288.00 z M 149.00 294.00 L 149.00 295.00 L 146.00 300.00 L 142.00 295.00 L 145.00 291.00 L 145.00 290.00 z M 242.00 290.00 L 229.00 287.00 L 230.00 284.00 L 241.00 275.00 L 243.00 275.00 L 244.00 278.00 L 244.00 283.00 L 242.00 290.00 L 244.00 290.00 L 245.00 298.00 L 240.00 298.00 z M 248.00 291.00 L 251.00 299.00 L 245.00 298.00 L 247.00 291.00 z M 284.00 293.00 L 286.00 298.00 L 272.00 296.00 L 270.00 294.00 L 276.00 286.00 z M 211.00 285.00 L 214.00 286.00 L 217.00 291.00 L 213.00 295.00 L 216.00 295.00 L 214.00 297.00 L 214.00 295.00 L 210.00 285.00 z M 223.00 291.00 L 234.00 297.00 L 220.00 296.00 L 219.00 295.00 L 223.00 291.00 L 222.00 291.00 L 224.00 288.00 z M 219.00 295.00 L 219.00 296.00 L 216.00 295.00 L 218.00 293.00 z M 270.00 294.00 L 269.00 295.00 L 268.00 295.00 L 267.00 290.00 z M 213.00 295.00 L 203.00 294.00 L 208.00 287.00 L 210.00 285.00 z M 178.00 292.00 L 179.00 292.00 L 178.00 293.00 L 177.00 295.00 L 177.00 294.00 L 178.00 293.00 L 178.00 292.00 L 177.00 292.00 L 178.00 290.00 z M 190.00 280.00 L 184.00 288.00 L 180.00 292.00 L 183.00 292.00 L 178.00 295.00 L 178.00 293.00 L 180.00 292.00 L 179.00 292.00 L 184.00 279.00 z M 95.00 287.00 L 93.00 288.00 L 94.00 293.00 L 94.00 294.00 L 92.00 288.00 L 93.00 288.00 L 92.00 285.00 L 94.00 283.00 z M 140.00 293.00 L 139.00 293.00 L 134.00 287.00 z M 158.00 290.00 L 154.00 293.00 L 153.00 290.00 L 154.00 289.00 z M 88.00 290.00 L 83.00 292.00 L 89.00 287.00 z M 99.00 290.00 L 96.00 292.00 L 95.00 289.00 L 95.00 287.00 L 112.00 280.00 z M 316.00 274.00 L 314.00 274.00 L 308.00 286.00 L 309.00 290.00 L 307.00 289.00 L 308.00 286.00 L 307.00 274.00 L 314.00 274.00 L 315.00 272.00 z M 174.00 278.00 L 174.00 277.00 L 173.00 277.00 L 170.00 279.00 L 162.00 283.00 L 164.00 285.00 L 158.00 289.00 L 156.00 286.00 L 156.00 285.00 L 162.00 283.00 L 160.00 281.00 L 163.00 277.00 L 174.00 277.00 L 173.00 264.00 L 172.00 263.00 L 171.00 263.00 L 163.00 258.00 L 164.00 257.00 L 172.00 254.00 L 172.00 263.00 L 174.00 263.00 L 173.00 264.00 L 174.00 264.00 L 176.00 277.00 L 175.00 277.00 z M 222.00 286.00 L 219.00 289.00 L 214.00 286.00 L 212.00 284.00 L 211.00 284.00 z M 146.00 288.00 L 142.00 288.00 L 146.00 278.00 L 152.00 277.00 z M 181.00 278.00 L 181.00 279.00 L 177.00 284.00 L 177.00 286.00 L 175.00 288.00 L 175.00 286.00 L 177.00 284.00 L 176.00 278.00 z M 146.00 278.00 L 142.00 278.00 L 137.00 283.00 L 142.00 288.00 L 134.00 287.00 L 137.00 283.00 L 141.00 278.00 L 142.00 278.00 L 149.00 270.00 z M 230.00 284.00 L 229.00 284.00 L 228.00 287.00 L 226.00 287.00 L 229.00 284.00 L 232.00 278.00 L 234.00 276.00 z M 133.00 285.00 L 134.00 287.00 L 131.00 287.00 L 131.00 283.00 z M 209.00 281.00 L 208.00 281.00 L 209.00 284.00 L 206.00 282.00 L 208.00 281.00 L 207.00 278.00 L 208.00 278.00 L 207.00 276.00 L 208.00 276.00 L 218.00 270.00 L 217.00 272.00 L 210.00 276.00 L 208.00 276.00 L 208.00 278.00 z M 210.00 280.00 L 211.00 282.00 L 210.00 284.00 L 209.00 281.00 L 210.00 280.00 L 208.00 277.00 L 210.00 276.00 L 214.00 276.00 z M 200.00 282.00 L 199.00 283.00 L 199.00 282.00 z M 92.00 281.00 L 90.00 282.00 L 89.00 279.00 L 93.00 279.00 z M 201.00 282.00 L 200.00 282.00 L 203.00 281.00 z M 201.00 280.00 L 199.00 281.00 L 200.00 279.00 z M 126.00 278.00 L 125.00 278.00 L 121.00 281.00 L 121.00 278.00 L 125.00 278.00 L 126.00 277.00 z M 200.00 274.00 L 197.00 276.00 L 196.00 276.00 L 197.00 277.00 L 192.00 281.00 L 190.00 280.00 L 193.00 277.00 L 196.00 276.00 L 194.00 275.00 L 201.00 267.00 z M 203.00 280.00 L 201.00 280.00 L 203.00 279.00 z M 93.00 280.00 L 93.00 279.00 L 94.00 279.00 z M 346.00 263.00 L 347.00 270.00 L 357.00 270.00 L 357.00 273.00 L 348.00 273.00 L 349.00 279.00 L 345.00 276.00 L 345.00 273.00 L 348.00 273.00 L 347.00 270.00 L 345.00 270.00 L 346.00 263.00 L 342.00 236.00 L 341.00 233.00 L 337.00 226.00 L 339.00 222.00 L 338.00 215.00 L 339.00 215.00 L 338.00 214.00 L 336.00 204.00 L 352.00 195.00 L 356.00 186.00 L 356.00 184.00 L 358.00 183.00 L 356.00 186.00 L 355.00 193.00 L 352.00 195.00 L 344.00 213.00 L 339.00 215.00 L 342.00 217.00 L 339.00 222.00 L 341.00 233.00 L 349.00 245.00 z M 182.00 279.00 L 181.00 278.00 L 181.00 277.00 L 183.00 277.00 z M 118.00 269.00 L 122.00 273.00 L 120.00 274.00 L 120.00 276.00 L 115.00 278.00 L 114.00 278.00 L 120.00 274.00 L 118.00 269.00 L 115.00 266.00 L 117.00 265.00 z M 156.00 276.00 L 155.00 277.00 L 152.00 277.00 L 154.00 274.00 z M 163.00 258.00 L 161.00 262.00 L 171.00 263.00 L 173.00 264.00 L 163.00 277.00 L 157.00 277.00 L 156.00 276.00 L 160.00 263.00 L 161.00 262.00 L 162.00 258.00 z M 126.00 274.00 L 124.00 274.00 L 123.00 275.00 L 124.00 275.00 L 120.00 277.00 L 120.00 276.00 L 123.00 275.00 L 122.00 273.00 L 124.00 271.00 z M 181.00 277.00 L 176.00 277.00 L 182.00 274.00 z M 189.00 272.00 L 194.00 275.00 L 193.00 277.00 L 185.00 277.00 L 189.00 272.00 L 188.00 272.00 L 189.00 271.00 L 191.00 270.00 z M 244.00 277.00 L 243.00 275.00 L 244.00 275.00 z M 204.00 271.00 L 203.00 271.00 L 203.00 276.00 L 200.00 276.00 L 200.00 274.00 L 203.00 271.00 L 203.00 269.00 z M 207.00 276.00 L 205.00 276.00 L 206.00 275.00 z M 237.00 265.00 L 233.00 275.00 L 233.00 276.00 L 221.00 276.00 L 233.00 265.00 z M 239.00 268.00 L 236.00 272.00 L 235.00 273.00 L 234.00 276.00 L 233.00 276.00 L 233.00 275.00 L 235.00 273.00 L 238.00 267.00 z M 128.00 275.00 L 129.00 274.00 L 129.00 276.00 z M 252.00 274.00 L 253.00 275.00 L 252.00 275.00 L 252.00 274.00 L 248.00 270.00 L 253.00 266.00 L 254.00 266.00 z M 284.00 273.00 L 283.00 275.00 L 275.00 275.00 L 274.00 273.00 L 273.00 270.00 L 274.00 267.00 z M 91.00 256.00 L 87.00 256.00 L 86.00 259.00 L 92.00 259.00 L 93.00 268.00 L 87.00 274.00 L 84.00 264.00 L 86.00 259.00 L 82.00 259.00 L 81.00 256.00 L 87.00 256.00 L 90.00 245.00 z M 128.00 272.00 L 126.00 273.00 L 127.00 273.00 L 126.00 274.00 L 126.00 273.00 L 124.00 271.00 L 128.00 268.00 z M 293.00 268.00 L 301.00 274.00 L 285.00 274.00 L 284.00 273.00 L 287.00 268.00 z M 307.00 268.00 L 307.00 274.00 L 305.00 274.00 L 304.00 268.00 z M 307.00 248.00 L 311.00 251.00 L 314.00 264.00 L 319.00 264.00 L 317.00 269.00 L 327.00 269.00 L 329.00 273.00 L 317.00 274.00 L 316.00 270.00 L 317.00 269.00 L 315.00 269.00 L 314.00 264.00 L 312.00 263.00 L 307.00 248.00 L 305.00 247.00 L 305.00 242.00 z M 345.00 270.00 L 345.00 273.00 L 341.00 273.00 L 336.00 270.00 z M 131.00 272.00 L 129.00 273.00 L 128.00 272.00 L 132.00 270.00 z M 130.00 273.00 L 131.00 272.00 L 133.00 271.00 z M 377.00 271.00 L 377.00 272.00 L 374.00 272.00 L 374.00 271.00 z M 195.00 264.00 L 189.00 271.00 L 187.00 272.00 L 187.00 271.00 L 190.00 263.00 z M 359.00 257.00 L 359.00 260.00 L 361.00 264.00 L 363.00 271.00 L 357.00 270.00 L 359.00 260.00 L 349.00 245.00 L 351.00 226.00 z M 143.00 263.00 L 139.00 265.00 L 133.00 270.00 L 136.00 267.00 L 139.00 265.00 L 143.00 262.00 z M 151.00 266.00 L 149.00 269.00 L 151.00 265.00 L 151.00 263.00 L 154.00 262.00 L 151.00 265.00 z M 239.00 265.00 L 241.00 266.00 L 240.00 267.00 L 240.00 268.00 L 239.00 269.00 L 239.00 268.00 L 240.00 267.00 L 239.00 265.00 L 238.00 265.00 L 239.00 264.00 z M 312.00 263.00 L 314.00 269.00 L 307.00 268.00 L 306.00 262.00 z M 260.00 248.00 L 264.00 256.00 L 266.00 256.00 L 265.00 257.00 L 269.00 264.00 L 273.00 267.00 L 270.00 267.00 L 269.00 264.00 L 265.00 261.00 L 263.00 258.00 L 265.00 257.00 L 264.00 256.00 L 262.00 255.00 L 260.00 249.00 L 260.00 248.00 L 259.00 248.00 L 262.00 246.00 z M 203.00 264.00 L 203.00 265.00 L 201.00 266.00 L 201.00 264.00 z M 258.00 249.00 L 258.00 248.00 L 259.00 247.00 L 259.00 248.00 L 258.00 249.00 L 258.00 250.00 L 254.00 254.00 L 257.00 255.00 L 257.00 256.00 L 260.00 258.00 L 260.00 260.00 L 255.00 264.00 L 254.00 266.00 L 255.00 266.00 L 254.00 265.00 L 255.00 264.00 L 257.00 256.00 L 254.00 254.00 L 253.00 254.00 L 253.00 251.00 z M 248.00 260.00 L 244.00 265.00 L 244.00 266.00 L 243.00 266.00 L 243.00 265.00 L 244.00 265.00 L 243.00 264.00 L 243.00 263.00 L 246.00 258.00 L 244.00 256.00 L 249.00 253.00 L 246.00 258.00 z M 241.00 266.00 L 242.00 263.00 L 243.00 264.00 L 243.00 266.00 z M 114.00 254.00 L 113.00 254.00 L 115.00 258.00 L 115.00 259.00 L 114.00 260.00 L 116.00 260.00 L 117.00 265.00 L 113.00 261.00 L 114.00 260.00 L 112.00 260.00 L 106.00 255.00 L 107.00 254.00 L 113.00 254.00 L 111.00 251.00 L 113.00 248.00 z M 238.00 262.00 L 237.00 265.00 L 236.00 263.00 L 238.00 261.00 z M 230.00 253.00 L 228.00 253.00 L 221.00 265.00 L 213.00 264.00 L 214.00 262.00 L 219.00 257.00 L 228.00 253.00 L 229.00 252.00 z M 203.00 255.00 L 203.00 247.00 L 210.00 247.00 L 203.00 255.00 L 203.00 256.00 L 201.00 258.00 L 201.00 257.00 z M 222.00 249.00 L 228.00 250.00 L 219.00 257.00 L 216.00 259.00 L 214.00 262.00 L 211.00 264.00 L 204.00 264.00 L 216.00 259.00 L 222.00 249.00 L 217.00 248.00 L 219.00 246.00 L 224.00 245.00 z M 99.00 260.00 L 101.00 260.00 L 98.00 263.00 z M 112.00 260.00 L 113.00 261.00 L 112.00 262.00 L 110.00 260.00 z M 151.00 262.00 L 145.00 262.00 L 151.00 258.00 z M 162.00 258.00 L 156.00 261.00 L 159.00 256.00 L 158.00 256.00 L 163.00 250.00 L 164.00 250.00 L 159.00 256.00 z M 196.00 243.00 L 198.00 243.00 L 202.00 234.00 L 203.00 233.00 L 203.00 230.00 L 204.00 227.00 L 203.00 233.00 L 203.00 241.00 L 198.00 243.00 L 197.00 245.00 L 200.00 245.00 L 197.00 246.00 L 197.00 247.00 L 201.00 258.00 L 198.00 261.00 L 194.00 254.00 L 196.00 247.00 L 197.00 247.00 L 197.00 245.00 z M 150.00 255.00 L 144.00 261.00 L 143.00 258.00 L 148.00 252.00 L 150.00 251.00 z M 146.00 249.00 L 149.00 251.00 L 145.00 251.00 L 145.00 252.00 L 149.00 252.00 L 142.00 257.00 L 143.00 258.00 L 141.00 260.00 L 142.00 261.00 L 140.00 261.00 L 141.00 260.00 L 140.00 259.00 L 142.00 257.00 L 141.00 255.00 L 143.00 252.00 L 145.00 251.00 L 144.00 250.00 L 146.00 248.00 z M 141.00 255.00 L 139.00 258.00 L 140.00 259.00 L 139.00 259.00 L 137.00 261.00 L 136.00 261.00 L 139.00 259.00 L 139.00 258.00 L 134.00 252.00 L 140.00 252.00 z M 239.00 260.00 L 238.00 259.00 L 239.00 258.00 z M 308.00 239.00 L 310.00 239.00 L 321.00 258.00 L 311.00 251.00 z M 80.00 259.00 L 79.00 259.00 L 79.00 258.00 z M 237.00 249.00 L 234.00 251.00 L 239.00 252.00 L 241.00 253.00 L 240.00 256.00 L 238.00 258.00 L 236.00 257.00 L 234.00 251.00 L 232.00 246.00 L 233.00 245.00 z M 71.00 258.00 L 60.00 258.00 L 71.00 257.00 z M 242.00 258.00 L 241.00 258.00 L 242.00 257.00 z M 272.00 251.00 L 280.00 257.00 L 279.00 258.00 L 266.00 256.00 L 272.00 251.00 L 264.00 245.00 L 269.00 242.00 L 285.00 241.00 z M 201.00 257.00 L 201.00 258.00 L 197.00 247.00 L 202.00 247.00 z M 254.00 254.00 L 252.00 257.00 L 253.00 254.00 z M 90.00 245.00 L 81.00 256.00 L 80.00 252.00 L 90.00 244.00 z M 103.00 255.00 L 100.00 255.00 L 102.00 251.00 L 104.00 253.00 z M 111.00 251.00 L 107.00 254.00 L 106.00 254.00 L 106.00 255.00 L 105.00 254.00 L 106.00 254.00 L 104.00 253.00 L 104.00 252.00 L 107.00 245.00 z M 249.00 251.00 L 248.00 253.00 L 249.00 253.00 L 245.00 255.00 L 248.00 253.00 L 245.00 253.00 L 248.00 250.00 z M 243.00 255.00 L 242.00 255.00 L 242.00 254.00 z M 259.00 255.00 L 257.00 255.00 L 258.00 251.00 z M 337.00 226.00 L 333.00 235.00 L 342.00 236.00 L 332.00 237.00 L 324.00 252.00 L 314.00 238.00 L 326.00 237.00 L 312.00 235.00 L 311.00 234.00 L 329.00 235.00 L 330.00 237.00 L 326.00 237.00 L 330.00 238.00 L 330.00 237.00 L 332.00 237.00 L 333.00 235.00 L 329.00 235.00 L 324.00 220.00 L 331.00 217.00 z M 258.00 248.00 L 253.00 250.00 L 253.00 251.00 L 251.00 252.00 L 250.00 252.00 L 253.00 250.00 L 254.00 247.00 L 257.00 245.00 z M 133.00 252.00 L 132.00 250.00 L 138.00 248.00 z M 250.00 252.00 L 249.00 251.00 L 253.00 248.00 z M 163.00 250.00 L 165.00 249.00 L 165.00 250.00 z M 187.00 243.00 L 188.00 244.00 L 186.00 247.00 L 183.00 247.00 L 183.00 249.00 L 172.00 249.00 L 183.00 247.00 L 183.00 242.00 z M 107.00 228.00 L 100.00 234.00 L 105.00 241.00 L 103.00 248.00 L 99.00 235.00 L 100.00 234.00 L 99.00 233.00 L 106.00 224.00 z M 185.00 248.00 L 186.00 247.00 L 189.00 247.00 z M 135.00 242.00 L 129.00 247.00 L 128.00 246.00 L 135.00 241.00 z M 247.00 245.00 L 246.00 247.00 L 244.00 246.00 L 247.00 245.00 L 248.00 243.00 L 251.00 243.00 z M 260.00 247.00 L 261.00 243.00 L 264.00 245.00 z M 223.00 243.00 L 221.00 243.00 L 219.00 246.00 L 211.00 246.00 L 214.00 244.00 L 221.00 243.00 L 222.00 242.00 z M 232.00 245.00 L 231.00 244.00 L 230.00 242.00 L 234.00 241.00 L 235.00 242.00 L 233.00 245.00 L 232.00 246.00 z M 194.00 244.00 L 189.00 246.00 L 188.00 244.00 L 189.00 243.00 z M 244.00 246.00 L 241.00 244.00 L 245.00 244.00 z M 225.00 245.00 L 226.00 242.00 L 229.00 242.00 L 227.00 240.00 L 229.00 238.00 L 230.00 242.00 L 229.00 242.00 L 232.00 245.00 z M 213.00 233.00 L 209.00 227.00 L 208.00 227.00 L 213.00 233.00 L 216.00 235.00 L 203.00 240.00 L 203.00 245.00 L 202.00 245.00 L 203.00 241.00 L 203.00 233.00 z M 177.00 242.00 L 171.00 245.00 L 173.00 241.00 z M 241.00 231.00 L 241.00 238.00 L 239.00 241.00 L 236.00 241.00 L 237.00 242.00 L 236.00 243.00 L 238.00 244.00 L 234.00 245.00 L 236.00 243.00 L 235.00 242.00 L 235.00 241.00 L 236.00 241.00 L 241.00 231.00 L 241.00 230.00 L 242.00 230.00 z M 286.00 233.00 L 288.00 235.00 L 280.00 236.00 L 269.00 242.00 L 264.00 245.00 L 266.00 242.00 L 269.00 242.00 L 279.00 236.00 L 280.00 236.00 L 281.00 235.00 L 286.00 233.00 L 285.00 232.00 L 287.00 232.00 L 284.00 231.00 L 282.00 230.00 L 292.00 225.00 L 295.00 223.00 L 295.00 224.00 L 296.00 226.00 L 295.00 227.00 L 287.00 232.00 L 288.00 232.00 z M 196.00 245.00 L 194.00 244.00 L 196.00 244.00 z M 165.00 240.00 L 158.00 244.00 L 160.00 239.00 z M 257.00 243.00 L 259.00 242.00 L 260.00 242.00 L 260.00 243.00 L 257.00 243.00 L 258.00 244.00 L 257.00 244.00 L 256.00 243.00 z M 258.00 241.00 L 257.00 243.00 L 257.00 240.00 L 258.00 238.00 L 260.00 238.00 L 265.00 231.00 L 262.00 231.00 L 263.00 228.00 L 262.00 228.00 L 267.00 229.00 L 265.00 231.00 L 273.00 231.00 L 266.00 236.00 L 263.00 238.00 L 260.00 238.00 L 258.00 240.00 z M 260.00 242.00 L 265.00 237.00 L 271.00 237.00 L 261.00 242.00 z M 223.00 241.00 L 223.00 242.00 L 222.00 241.00 L 223.00 241.00 L 220.00 237.00 L 222.00 235.00 z M 149.00 242.00 L 149.00 239.00 L 153.00 235.00 z M 176.00 235.00 L 176.00 236.00 L 174.00 236.00 L 170.00 240.00 L 172.00 241.00 L 171.00 242.00 L 170.00 240.00 L 170.00 237.00 L 174.00 236.00 L 179.00 230.00 z M 257.00 241.00 L 256.00 242.00 L 256.00 241.00 z M 95.00 220.00 L 98.00 220.00 L 96.00 225.00 L 98.00 231.00 L 99.00 233.00 L 99.00 235.00 L 93.00 241.00 L 99.00 233.00 L 98.00 231.00 L 96.00 228.00 L 96.00 225.00 L 95.00 220.00 L 90.00 220.00 L 90.00 218.00 L 93.00 216.00 z M 256.00 241.00 L 255.00 241.00 L 255.00 240.00 z M 305.00 241.00 L 305.00 239.00 L 306.00 239.00 z M 249.00 230.00 L 250.00 231.00 L 248.00 232.00 L 249.00 233.00 L 246.00 240.00 L 241.00 240.00 L 241.00 238.00 L 248.00 232.00 L 244.00 230.00 z M 298.00 240.00 L 295.00 240.00 L 291.00 237.00 L 292.00 235.00 L 293.00 234.00 L 297.00 234.00 z M 127.00 225.00 L 125.00 222.00 L 130.00 222.00 L 131.00 223.00 L 127.00 225.00 L 130.00 231.00 L 122.00 239.00 L 120.00 227.00 z M 96.00 228.00 L 92.00 240.00 L 89.00 236.00 L 87.00 220.00 L 90.00 220.00 z M 87.00 220.00 L 79.00 225.00 L 89.00 236.00 L 89.00 240.00 L 76.00 228.00 L 79.00 225.00 L 73.00 219.00 z M 167.00 240.00 L 165.00 240.00 L 168.00 237.00 L 171.00 237.00 z M 251.00 230.00 L 250.00 231.00 L 252.00 234.00 L 251.00 235.00 L 253.00 236.00 L 254.00 239.00 L 249.00 239.00 L 251.00 235.00 L 249.00 233.00 L 250.00 231.00 L 250.00 230.00 z M 304.00 234.00 L 305.00 239.00 L 304.00 239.00 L 302.00 234.00 z M 259.00 231.00 L 262.00 231.00 L 258.00 238.00 L 257.00 238.00 L 257.00 239.00 L 256.00 239.00 L 257.00 238.00 L 259.00 231.00 L 255.00 230.00 L 255.00 229.00 L 260.00 228.00 z M 256.00 238.00 L 255.00 238.00 L 255.00 235.00 L 254.00 230.00 L 255.00 230.00 L 255.00 236.00 z M 217.00 232.00 L 218.00 234.00 L 216.00 235.00 L 213.00 233.00 z M 228.00 235.00 L 227.00 236.00 L 228.00 236.00 L 229.00 238.00 L 227.00 237.00 L 227.00 236.00 L 223.00 233.00 L 225.00 231.00 L 227.00 231.00 z M 255.00 236.00 L 255.00 238.00 L 253.00 236.00 L 252.00 234.00 L 253.00 231.00 z M 168.00 237.00 L 161.00 237.00 L 162.00 236.00 L 169.00 232.00 L 170.00 235.00 z M 241.00 229.00 L 241.00 230.00 L 233.00 231.00 L 229.00 237.00 L 228.00 236.00 L 228.00 235.00 L 231.00 231.00 L 233.00 231.00 L 234.00 229.00 z M 162.00 236.00 L 161.00 236.00 L 162.00 235.00 z M 180.00 231.00 L 182.00 235.00 L 176.00 236.00 L 176.00 235.00 L 180.00 231.00 L 179.00 230.00 L 181.00 227.00 L 182.00 226.00 L 182.00 228.00 z M 279.00 236.00 L 278.00 236.00 L 281.00 235.00 z M 189.00 222.00 L 186.00 224.00 L 184.00 226.00 L 190.00 226.00 L 192.00 232.00 L 187.00 235.00 L 182.00 235.00 L 182.00 228.00 L 184.00 226.00 L 183.00 226.00 L 185.00 224.00 L 186.00 224.00 L 187.00 222.00 L 189.00 221.00 z M 309.00 234.00 L 309.00 235.00 L 308.00 235.00 L 307.00 234.00 z M 307.00 234.00 L 308.00 235.00 L 304.00 234.00 L 304.00 233.00 L 302.00 233.00 L 300.00 229.00 L 301.00 228.00 L 303.00 227.00 L 303.00 226.00 L 304.00 227.00 L 304.00 233.00 z M 189.00 222.00 L 189.00 221.00 L 193.00 218.00 L 196.00 218.00 L 189.00 222.00 L 190.00 226.00 L 200.00 227.00 L 192.00 232.00 L 190.00 226.00 z M 203.00 227.00 L 203.00 230.00 L 202.00 234.00 L 196.00 234.00 L 201.00 227.00 L 200.00 227.00 L 202.00 226.00 L 203.00 224.00 L 203.00 225.00 L 201.00 227.00 z M 224.00 232.00 L 221.00 233.00 L 222.00 234.00 L 222.00 233.00 L 221.00 232.00 z M 215.00 228.00 L 222.00 232.00 L 219.00 232.00 L 221.00 233.00 L 220.00 233.00 L 215.00 228.00 L 214.00 228.00 L 213.00 227.00 L 207.00 223.00 L 208.00 222.00 L 207.00 221.00 L 207.00 220.00 L 211.00 220.00 L 208.00 222.00 L 214.00 228.00 z M 152.00 224.00 L 158.00 224.00 L 149.00 232.00 L 148.00 228.00 L 152.00 224.00 L 148.00 223.00 L 147.00 217.00 L 151.00 216.00 L 149.00 212.00 L 157.00 219.00 z M 295.00 230.00 L 289.00 232.00 L 287.00 232.00 L 295.00 227.00 L 296.00 227.00 z M 279.00 231.00 L 277.00 232.00 L 276.00 232.00 L 278.00 230.00 z M 273.00 223.00 L 278.00 227.00 L 275.00 230.00 L 274.00 230.00 L 272.00 231.00 L 273.00 231.00 L 275.00 230.00 L 267.00 229.00 L 268.00 227.00 L 272.00 227.00 L 273.00 223.00 L 272.00 222.00 L 273.00 220.00 z M 176.00 225.00 L 178.00 228.00 L 172.00 230.00 L 174.00 225.00 z M 214.00 228.00 L 216.00 229.00 L 216.00 230.00 L 213.00 228.00 z M 253.00 229.00 L 252.00 229.00 L 253.00 228.00 z M 303.00 226.00 L 301.00 228.00 L 300.00 228.00 L 300.00 229.00 L 299.00 229.00 L 300.00 228.00 L 299.00 225.00 L 301.00 223.00 z M 178.00 229.00 L 178.00 228.00 L 182.00 226.00 z M 234.00 227.00 L 230.00 229.00 L 228.00 229.00 L 232.00 224.00 L 237.00 224.00 z M 215.00 209.00 L 217.00 208.00 L 219.00 210.00 L 221.00 214.00 L 210.00 220.00 L 222.00 222.00 L 222.00 228.00 L 215.00 228.00 L 211.00 220.00 L 209.00 217.00 z M 246.00 224.00 L 247.00 222.00 L 249.00 221.00 L 251.00 226.00 L 247.00 226.00 z M 290.00 218.00 L 278.00 227.00 L 290.00 217.00 z M 115.00 207.00 L 113.00 214.00 L 108.00 221.00 L 111.00 221.00 L 109.00 226.00 L 107.00 223.00 L 108.00 221.00 L 105.00 221.00 L 102.00 210.00 L 109.00 206.00 z M 172.00 218.00 L 170.00 215.00 L 169.00 214.00 L 170.00 214.00 L 174.00 203.00 L 179.00 206.00 L 170.00 214.00 L 170.00 215.00 L 174.00 215.00 L 172.00 218.00 L 173.00 220.00 L 168.00 223.00 L 169.00 225.00 L 170.00 225.00 L 169.00 226.00 L 169.00 225.00 L 168.00 225.00 L 168.00 222.00 z M 176.00 225.00 L 175.00 224.00 L 178.00 216.00 L 182.00 216.00 L 182.00 226.00 z M 249.00 210.00 L 246.00 214.00 L 248.00 220.00 L 247.00 222.00 L 245.00 223.00 L 246.00 224.00 L 245.00 226.00 L 240.00 225.00 L 240.00 224.00 L 245.00 223.00 L 242.00 218.00 L 246.00 214.00 L 245.00 212.00 L 248.00 206.00 z M 204.00 225.00 L 204.00 224.00 L 205.00 224.00 z M 301.00 221.00 L 300.00 221.00 L 301.00 223.00 L 299.00 225.00 L 298.00 223.00 L 299.00 221.00 L 300.00 221.00 L 300.00 220.00 L 301.00 220.00 z M 183.00 209.00 L 185.00 209.00 L 185.00 210.00 L 187.00 216.00 L 187.00 217.00 L 188.00 217.00 L 188.00 218.00 L 182.00 225.00 L 187.00 217.00 L 182.00 216.00 L 182.00 212.00 L 185.00 210.00 L 183.00 209.00 L 182.00 208.00 L 182.00 205.00 L 183.00 204.00 L 184.00 208.00 z M 237.00 224.00 L 239.00 222.00 L 240.00 220.00 L 240.00 225.00 z M 114.00 221.00 L 111.00 224.00 L 112.00 221.00 z M 185.00 224.00 L 184.00 224.00 L 187.00 222.00 z M 254.00 219.00 L 252.00 224.00 L 251.00 220.00 L 254.00 218.00 z M 206.00 223.00 L 205.00 224.00 L 204.00 223.00 L 205.00 222.00 z M 166.00 211.00 L 163.00 214.00 L 166.00 214.00 L 163.00 220.00 L 160.00 222.00 L 161.00 223.00 L 160.00 224.00 L 158.00 224.00 L 160.00 222.00 L 157.00 219.00 L 163.00 214.00 L 149.00 212.00 L 164.00 197.00 z M 304.00 222.00 L 303.00 222.00 L 304.00 221.00 z M 298.00 222.00 L 295.00 223.00 L 293.00 215.00 L 295.00 214.00 z M 303.00 222.00 L 301.00 221.00 L 303.00 220.00 z M 128.00 195.00 L 134.00 200.00 L 135.00 203.00 L 129.00 208.00 L 136.00 210.00 L 139.00 220.00 L 133.00 222.00 L 130.00 222.00 L 125.00 212.00 L 129.00 208.00 L 123.00 208.00 L 123.00 207.00 L 128.00 195.00 L 130.00 192.00 L 132.00 190.00 z M 174.00 203.00 L 173.00 204.00 L 169.00 214.00 L 170.00 215.00 L 168.00 218.00 L 168.00 222.00 L 167.00 220.00 L 168.00 218.00 L 168.00 216.00 L 169.00 214.00 L 167.00 214.00 L 167.00 213.00 L 173.00 204.00 L 173.00 203.00 z M 204.00 220.00 L 204.00 222.00 L 203.00 221.00 L 203.00 219.00 z M 66.00 218.00 L 68.00 218.00 L 69.00 221.00 L 66.00 218.00 L 64.00 218.00 L 63.00 215.00 z M 181.00 207.00 L 178.00 215.00 L 178.00 216.00 L 173.00 221.00 L 173.00 220.00 L 178.00 216.00 L 174.00 215.00 L 181.00 207.00 L 179.00 206.00 L 180.00 206.00 z M 240.00 214.00 L 233.00 221.00 L 223.00 213.00 L 235.00 205.00 z M 121.00 212.00 L 119.00 217.00 L 118.00 218.00 L 117.00 221.00 L 114.00 221.00 L 118.00 218.00 L 117.00 210.00 L 118.00 208.00 z M 105.00 221.00 L 98.00 220.00 L 100.00 215.00 z M 265.00 218.00 L 262.00 220.00 L 263.00 216.00 z M 301.00 219.00 L 300.00 220.00 L 296.00 214.00 L 296.00 213.00 z M 201.00 205.00 L 203.00 208.00 L 198.00 212.00 L 199.00 213.00 L 197.00 215.00 L 199.00 217.00 L 198.00 218.00 L 200.00 219.00 L 201.00 219.00 L 202.00 220.00 L 200.00 219.00 L 199.00 219.00 L 196.00 216.00 L 197.00 215.00 L 196.00 214.00 L 198.00 212.00 L 196.00 211.00 L 201.00 205.00 L 200.00 202.00 L 204.00 198.00 L 202.00 196.00 L 204.00 195.00 L 204.00 202.00 z M 147.00 217.00 L 142.00 219.00 L 147.00 214.00 z M 267.00 219.00 L 265.00 218.00 L 269.00 214.00 z M 205.00 219.00 L 203.00 217.00 L 203.00 215.00 L 205.00 214.00 z M 199.00 219.00 L 196.00 218.00 L 198.00 218.00 z M 60.00 218.00 L 49.00 217.00 L 49.00 216.00 L 58.00 212.00 z M 189.00 212.00 L 187.00 216.00 L 187.00 217.00 L 188.00 217.00 L 188.00 218.00 L 187.00 217.00 L 188.00 217.00 L 187.00 216.00 L 185.00 210.00 z M 209.00 217.00 L 208.00 218.00 L 208.00 217.00 z M 318.00 201.00 L 321.00 209.00 L 304.00 218.00 L 303.00 214.00 L 309.00 203.00 L 315.00 199.00 z M 254.00 210.00 L 250.00 216.00 L 249.00 210.00 L 251.00 207.00 z M 51.00 186.00 L 54.00 196.00 L 32.00 207.00 L 32.00 212.00 L 20.00 216.00 L 20.00 214.00 L 32.00 207.00 L 30.00 180.00 L 48.00 177.00 z M 168.00 216.00 L 167.00 216.00 L 167.00 214.00 z M 196.00 216.00 L 195.00 216.00 L 194.00 215.00 L 195.00 215.00 z M 193.00 211.00 L 192.00 212.00 L 194.00 214.00 L 193.00 215.00 L 194.00 215.00 L 194.00 216.00 L 193.00 215.00 L 191.00 214.00 L 192.00 212.00 L 191.00 210.00 L 191.00 209.00 z M 182.00 212.00 L 178.00 215.00 L 182.00 210.00 z M 271.00 211.00 L 264.00 214.00 L 270.00 191.00 L 276.00 199.00 z M 125.00 212.00 L 122.00 214.00 L 121.00 212.00 L 123.00 208.00 z M 242.00 201.00 L 241.00 201.00 L 244.00 209.00 L 240.00 214.00 L 239.00 203.00 L 241.00 201.00 L 240.00 199.00 z M 319.00 214.00 L 321.00 212.00 L 322.00 212.00 z M 322.00 214.00 L 322.00 212.00 L 325.00 210.00 z M 75.00 185.00 L 75.00 188.00 L 85.00 199.00 L 80.00 201.00 L 85.00 202.00 L 86.00 213.00 L 79.00 202.00 L 80.00 201.00 L 78.00 201.00 L 74.00 195.00 L 75.00 188.00 L 74.00 187.00 L 74.00 185.00 L 75.00 185.00 L 75.00 173.00 L 81.00 172.00 L 79.00 164.00 L 80.00 162.00 L 80.00 161.00 L 83.00 158.00 L 80.00 155.00 L 78.00 140.00 L 77.00 140.00 L 77.00 139.00 L 78.00 139.00 L 78.00 140.00 L 89.00 148.00 L 83.00 158.00 L 88.00 162.00 L 80.00 162.00 L 82.00 172.00 L 81.00 172.00 L 83.00 180.00 z M 117.00 210.00 L 115.00 212.00 L 116.00 208.00 z M 324.00 206.00 L 323.00 204.00 L 325.00 206.00 L 324.00 206.00 L 326.00 208.00 L 322.00 211.00 L 321.00 211.00 L 321.00 209.00 z M 196.00 211.00 L 195.00 212.00 L 193.00 211.00 L 195.00 209.00 z M 102.00 210.00 L 101.00 211.00 L 102.00 208.00 z M 216.00 200.00 L 214.00 201.00 L 213.00 205.00 L 216.00 207.00 L 215.00 209.00 L 211.00 211.00 L 213.00 205.00 L 211.00 204.00 L 214.00 201.00 L 215.00 199.00 z M 59.00 193.00 L 55.00 195.00 L 58.00 204.00 L 57.00 205.00 L 58.00 211.00 L 53.00 206.00 L 57.00 205.00 L 54.00 196.00 L 55.00 195.00 L 51.00 186.00 L 49.00 177.00 L 53.00 176.00 z M 211.00 204.00 L 205.00 208.00 L 205.00 211.00 L 204.00 209.00 L 205.00 208.00 L 206.00 205.00 L 209.00 202.00 z M 136.00 178.00 L 140.00 180.00 L 139.00 181.00 L 142.00 183.00 L 133.00 189.00 L 140.00 198.00 L 136.00 202.00 L 147.00 211.00 L 136.00 210.00 L 135.00 203.00 L 136.00 202.00 L 134.00 200.00 L 132.00 190.00 L 133.00 189.00 L 139.00 181.00 L 135.00 179.00 L 136.00 178.00 L 133.00 176.00 L 137.00 174.00 z M 64.00 209.00 L 61.00 210.00 L 58.00 204.00 L 60.00 204.00 z M 248.00 205.00 L 248.00 206.00 L 244.00 210.00 L 244.00 209.00 L 247.00 205.00 z M 365.00 210.00 L 362.00 190.00 L 368.00 186.00 z M 312.00 197.00 L 309.00 195.00 L 309.00 182.00 L 315.00 191.00 L 315.00 192.00 L 313.00 196.00 L 312.00 197.00 L 313.00 197.00 L 309.00 203.00 L 302.00 209.00 L 302.00 206.00 z M 74.00 200.00 L 73.00 204.00 L 65.00 209.00 L 61.00 199.00 z M 357.00 208.00 L 353.00 209.00 L 355.00 193.00 L 362.00 189.00 z M 194.00 192.00 L 192.00 189.00 L 192.00 188.00 L 194.00 190.00 L 194.00 192.00 L 195.00 194.00 L 187.00 200.00 L 186.00 201.00 L 188.00 203.00 L 187.00 204.00 L 189.00 206.00 L 188.00 208.00 L 186.00 206.00 L 187.00 204.00 L 185.00 202.00 L 187.00 200.00 z M 336.00 204.00 L 329.00 208.00 L 328.00 208.00 L 336.00 203.00 z M 186.00 206.00 L 184.00 207.00 L 183.00 204.00 L 184.00 204.00 z M 119.00 200.00 L 117.00 205.00 L 118.00 207.00 L 117.00 207.00 L 117.00 205.00 L 116.00 203.00 L 117.00 200.00 L 119.00 199.00 z M 232.00 200.00 L 220.00 206.00 L 220.00 202.00 L 227.00 193.00 z M 90.00 203.00 L 90.00 205.00 L 88.00 203.00 z M 111.00 179.00 L 111.00 181.00 L 115.00 185.00 L 112.00 186.00 L 118.00 198.00 L 117.00 200.00 L 115.00 201.00 L 116.00 203.00 L 116.00 205.00 L 115.00 201.00 L 114.00 198.00 L 112.00 186.00 L 112.00 185.00 L 111.00 181.00 L 110.00 181.00 L 111.00 179.00 L 109.00 170.00 L 114.00 170.00 z M 183.00 203.00 L 182.00 204.00 L 182.00 203.00 z M 101.00 204.00 L 90.00 203.00 L 88.00 197.00 L 98.00 193.00 z M 78.00 201.00 L 79.00 202.00 L 74.00 204.00 L 74.00 200.00 z M 183.00 200.00 L 183.00 202.00 L 182.00 199.00 z M 186.00 201.00 L 185.00 202.00 L 183.00 200.00 L 184.00 199.00 z M 176.00 196.00 L 173.00 202.00 L 166.00 197.00 L 166.00 195.00 L 170.00 191.00 z M 180.00 197.00 L 181.00 197.00 L 182.00 200.00 L 182.00 199.00 z M 262.00 188.00 L 266.00 185.00 L 265.00 184.00 L 266.00 183.00 L 267.00 184.00 L 267.00 185.00 L 266.00 185.00 L 267.00 186.00 L 254.00 200.00 L 254.00 197.00 z M 277.00 200.00 L 276.00 199.00 L 278.00 195.00 z M 288.00 199.00 L 287.00 200.00 L 280.00 191.00 L 282.00 188.00 z M 88.00 197.00 L 85.00 199.00 L 83.00 180.00 z M 181.00 180.00 L 177.00 184.00 L 178.00 189.00 L 179.00 191.00 L 178.00 193.00 L 179.00 194.00 L 178.00 195.00 L 181.00 197.00 L 179.00 199.00 L 177.00 197.00 L 178.00 195.00 L 177.00 194.00 L 178.00 193.00 L 177.00 193.00 L 178.00 189.00 L 176.00 185.00 L 177.00 184.00 L 174.00 174.00 z M 287.00 191.00 L 289.00 198.00 L 288.00 199.00 L 287.00 191.00 L 284.00 182.00 L 286.00 179.00 z M 207.00 194.00 L 206.00 198.00 L 206.00 199.00 L 204.00 198.00 L 207.00 194.00 L 207.00 192.00 L 210.00 190.00 z M 177.00 197.00 L 176.00 198.00 L 176.00 197.00 z M 239.00 196.00 L 239.00 197.00 L 238.00 198.00 L 229.00 191.00 L 230.00 189.00 L 235.00 186.00 z M 297.00 187.00 L 290.00 197.00 L 286.00 178.00 L 289.00 172.00 L 285.00 174.00 L 292.00 169.00 z M 164.00 196.00 L 164.00 197.00 L 150.00 189.00 L 151.00 188.00 z M 162.00 182.00 L 164.00 185.00 L 166.00 195.00 L 165.00 196.00 L 164.00 196.00 L 162.00 182.00 L 160.00 180.00 L 162.00 179.00 z M 204.00 188.00 L 200.00 195.00 L 197.00 192.00 L 198.00 191.00 L 204.00 186.00 z M 219.00 184.00 L 221.00 185.00 L 219.00 189.00 L 219.00 193.00 L 217.00 195.00 L 219.00 189.00 L 219.00 184.00 L 218.00 183.00 L 220.00 182.00 L 219.00 182.00 z M 309.00 172.00 L 309.00 159.00 L 315.00 161.00 L 309.00 170.00 L 318.00 187.00 L 315.00 192.00 L 315.00 191.00 z M 60.00 194.00 L 59.00 193.00 L 61.00 192.00 z M 74.00 185.00 L 73.00 186.00 L 74.00 187.00 L 74.00 194.00 L 69.00 187.00 L 73.00 186.00 L 68.00 181.00 L 73.00 174.00 L 75.00 173.00 z M 130.00 184.00 L 131.00 188.00 L 130.00 192.00 L 126.00 194.00 L 122.00 190.00 L 125.00 180.00 L 127.00 179.00 z M 150.00 189.00 L 145.00 193.00 L 145.00 185.00 z M 178.00 189.00 L 181.00 181.00 L 181.00 180.00 L 182.00 180.00 L 181.00 181.00 L 181.00 183.00 L 179.00 190.00 L 180.00 193.00 L 179.00 193.00 L 179.00 190.00 z M 173.00 173.00 L 176.00 185.00 L 173.00 188.00 L 177.00 193.00 L 172.00 189.00 L 173.00 188.00 L 166.00 182.00 L 164.00 180.00 L 164.00 176.00 L 170.00 171.00 z M 189.00 184.00 L 189.00 186.00 L 191.00 188.00 L 187.00 191.00 L 189.00 186.00 L 185.00 183.00 L 187.00 180.00 z M 270.00 167.00 L 271.00 169.00 L 264.00 182.00 L 266.00 183.00 L 265.00 184.00 L 262.00 188.00 L 258.00 191.00 L 261.00 186.00 L 265.00 184.00 L 264.00 182.00 L 255.00 170.00 L 269.00 160.00 L 276.00 159.00 L 274.00 155.00 L 280.00 151.00 L 280.00 149.00 L 271.00 147.00 L 271.00 146.00 L 276.00 143.00 L 270.00 142.00 L 270.00 141.00 L 276.00 136.00 L 271.00 136.00 L 274.00 131.00 L 282.00 132.00 L 276.00 136.00 L 281.00 138.00 L 276.00 143.00 L 283.00 143.00 L 280.00 149.00 L 281.00 150.00 L 280.00 151.00 L 277.00 159.00 L 276.00 159.00 L 276.00 161.00 z M 268.00 187.00 L 265.00 191.00 L 267.00 186.00 z M 344.00 170.00 L 320.00 191.00 L 318.00 187.00 L 330.00 166.00 z M 121.00 189.00 L 115.00 185.00 L 123.00 181.00 z M 185.00 183.00 L 182.00 189.00 L 181.00 183.00 L 182.00 181.00 z M 109.00 179.00 L 110.00 181.00 L 110.00 182.00 L 112.00 185.00 L 112.00 186.00 L 109.00 188.00 L 108.00 187.00 L 110.00 182.00 L 109.00 179.00 L 102.00 174.00 L 101.00 171.00 L 104.00 171.00 z M 222.00 183.00 L 225.00 188.00 L 221.00 185.00 L 222.00 183.00 L 221.00 181.00 L 223.00 179.00 z M 216.00 182.00 L 211.00 188.00 L 209.00 182.00 L 212.00 179.00 z M 275.00 180.00 L 273.00 181.00 L 272.00 186.00 L 270.00 185.00 L 272.00 182.00 L 273.00 181.00 L 273.00 180.00 L 274.00 179.00 L 276.00 179.00 z M 268.00 183.00 L 272.00 181.00 L 268.00 184.00 L 267.00 184.00 z M 209.00 177.00 L 208.00 176.00 L 208.00 179.00 L 207.00 176.00 L 213.00 168.00 L 214.00 169.00 L 213.00 172.00 L 209.00 177.00 L 210.00 177.00 L 208.00 180.00 L 209.00 182.00 L 207.00 183.00 L 208.00 181.00 L 208.00 179.00 z M 280.00 170.00 L 278.00 174.00 L 275.00 177.00 L 276.00 177.00 L 274.00 179.00 L 274.00 180.00 L 273.00 180.00 L 272.00 182.00 L 270.00 183.00 L 272.00 181.00 L 274.00 180.00 L 274.00 178.00 L 275.00 177.00 L 275.00 176.00 L 276.00 173.00 L 279.00 168.00 z M 218.00 176.00 L 219.00 178.00 L 218.00 179.00 L 219.00 182.00 L 220.00 182.00 L 218.00 183.00 L 216.00 182.00 L 218.00 179.00 L 218.00 176.00 L 217.00 175.00 L 218.00 175.00 z M 228.00 168.00 L 225.00 176.00 L 221.00 181.00 L 219.00 178.00 L 228.00 167.00 L 227.00 167.00 z M 244.00 171.00 L 250.00 174.00 L 242.00 180.00 L 242.00 176.00 L 241.00 175.00 L 241.00 174.00 L 244.00 171.00 L 241.00 175.00 L 243.00 177.00 z M 276.00 162.00 L 272.00 171.00 L 274.00 174.00 L 269.00 180.00 L 272.00 171.00 L 271.00 169.00 L 276.00 162.00 L 276.00 160.00 L 277.00 159.00 L 278.00 159.00 L 281.00 153.00 L 280.00 157.00 L 276.00 161.00 z M 216.00 160.00 L 209.00 161.00 L 213.00 167.00 L 206.00 173.00 L 207.00 176.00 L 204.00 179.00 L 204.00 175.00 L 206.00 173.00 L 204.00 167.00 L 204.00 161.00 L 209.00 161.00 L 206.00 155.00 L 207.00 155.00 z M 240.00 168.00 L 241.00 174.00 L 240.00 175.00 L 241.00 175.00 L 238.00 179.00 L 237.00 177.00 L 240.00 175.00 L 237.00 174.00 L 237.00 168.00 L 238.00 167.00 z M 277.00 179.00 L 276.00 178.00 L 281.00 176.00 z M 359.00 175.00 L 361.00 176.00 L 360.00 179.00 L 359.00 175.00 L 358.00 175.00 L 358.00 168.00 z M 164.00 176.00 L 162.00 178.00 L 161.00 176.00 L 160.00 171.00 L 163.00 169.00 z M 163.00 165.00 L 163.00 168.00 L 160.00 168.00 L 160.00 171.00 L 158.00 173.00 L 161.00 176.00 L 161.00 177.00 L 157.00 173.00 L 158.00 173.00 L 154.00 169.00 L 160.00 168.00 L 159.00 163.00 L 160.00 163.00 z M 253.00 176.00 L 250.00 174.00 L 253.00 172.00 z M 282.00 169.00 L 280.00 172.00 L 277.00 176.00 L 278.00 174.00 L 280.00 172.00 L 280.00 170.00 L 281.00 166.00 L 283.00 163.00 z M 76.00 162.00 L 75.00 163.00 L 75.00 170.00 L 73.00 174.00 L 63.00 175.00 L 58.00 170.00 L 53.00 163.00 L 75.00 163.00 L 76.00 154.00 z M 144.00 175.00 L 144.00 171.00 L 148.00 169.00 z M 126.00 173.00 L 126.00 171.00 L 124.00 170.00 L 127.00 170.00 L 126.00 171.00 L 127.00 172.00 L 127.00 174.00 z M 101.00 171.00 L 99.00 172.00 L 99.00 171.00 L 101.00 171.00 L 100.00 170.00 L 104.00 169.00 z M 363.00 119.00 L 362.00 119.00 L 364.00 122.00 L 360.00 156.00 L 357.00 158.00 L 358.00 166.00 L 350.00 172.00 L 344.00 170.00 L 357.00 158.00 L 352.00 125.00 L 357.00 117.00 z M 35.00 135.00 L 38.00 140.00 L 44.00 161.00 L 29.00 171.00 L 26.00 135.00 z M 124.00 170.00 L 121.00 170.00 L 122.00 171.00 L 120.00 170.00 L 121.00 170.00 L 119.00 167.00 z M 282.00 170.00 L 282.00 169.00 L 289.00 162.00 z M 154.00 169.00 L 152.00 169.00 L 151.00 168.00 L 152.00 167.00 z M 151.00 166.00 L 150.00 167.00 L 151.00 168.00 L 148.00 169.00 L 150.00 167.00 L 146.00 163.00 L 149.00 163.00 z M 108.00 167.00 L 104.00 169.00 L 100.00 162.00 L 107.00 162.00 z M 79.00 164.00 L 76.00 168.00 L 76.00 162.00 L 78.00 162.00 z M 171.00 168.00 L 170.00 165.00 L 170.00 164.00 z M 228.00 168.00 L 227.00 167.00 L 228.00 166.00 z M 135.00 153.00 L 134.00 153.00 L 133.00 154.00 L 141.00 162.00 L 131.00 162.00 L 130.00 166.00 L 128.00 166.00 L 129.00 162.00 L 131.00 162.00 L 133.00 154.00 L 134.00 153.00 L 134.00 152.00 z M 181.00 161.00 L 179.00 163.00 L 178.00 161.00 z M 278.00 165.00 L 276.00 161.00 L 277.00 159.00 L 279.00 159.00 z M 116.00 162.00 L 111.00 162.00 L 114.00 164.00 L 112.00 165.00 L 107.00 162.00 L 111.00 162.00 L 107.00 159.00 L 104.00 143.00 z M 115.00 165.00 L 114.00 164.00 L 116.00 163.00 z M 238.00 159.00 L 237.00 160.00 L 236.00 160.00 L 237.00 161.00 L 233.00 165.00 L 231.00 163.00 L 236.00 160.00 L 236.00 159.00 L 238.00 158.00 L 237.00 154.00 L 240.00 150.00 L 243.00 153.00 L 238.00 158.00 z M 143.00 161.00 L 142.00 161.00 L 142.00 163.00 L 143.00 164.00 L 141.00 164.00 L 142.00 163.00 L 141.00 162.00 L 143.00 160.00 z M 146.00 163.00 L 143.00 164.00 L 143.00 161.00 L 144.00 161.00 z M 198.00 161.00 L 200.00 161.00 L 203.00 156.00 L 204.00 155.00 L 204.00 161.00 L 201.00 161.00 L 201.00 160.00 L 197.00 164.00 z M 217.00 163.00 L 218.00 162.00 L 217.00 164.00 z M 225.00 160.00 L 223.00 160.00 L 220.00 163.00 L 218.00 162.00 L 219.00 161.00 L 219.00 160.00 L 223.00 160.00 L 224.00 159.00 z M 218.00 162.00 L 217.00 163.00 L 217.00 161.00 z M 119.00 131.00 L 120.00 132.00 L 118.00 134.00 L 119.00 137.00 L 121.00 140.00 L 123.00 140.00 L 123.00 141.00 L 133.00 150.00 L 132.00 153.00 L 133.00 154.00 L 131.00 155.00 L 129.00 162.00 L 125.00 162.00 L 124.00 158.00 L 131.00 155.00 L 132.00 153.00 L 122.00 143.00 L 123.00 141.00 L 121.00 140.00 L 119.00 140.00 L 119.00 137.00 L 104.00 124.00 L 106.00 121.00 z M 160.00 142.00 L 162.00 142.00 L 164.00 148.00 L 161.00 152.00 L 162.00 161.00 L 159.00 161.00 L 159.00 162.00 L 158.00 162.00 L 157.00 161.00 L 159.00 161.00 L 158.00 156.00 L 161.00 152.00 L 160.00 142.00 L 156.00 142.00 L 156.00 141.00 L 160.00 139.00 z M 191.00 157.00 L 190.00 157.00 L 189.00 161.00 L 183.00 161.00 L 181.00 162.00 L 181.00 161.00 L 183.00 161.00 L 189.00 157.00 L 190.00 157.00 L 192.00 156.00 z M 157.00 161.00 L 154.00 161.00 L 155.00 160.00 z M 164.00 148.00 L 169.00 143.00 L 166.00 137.00 L 164.00 137.00 L 165.00 136.00 L 166.00 137.00 L 172.00 138.00 L 169.00 143.00 L 175.00 156.00 L 168.00 159.00 L 168.00 160.00 L 165.00 161.00 L 168.00 159.00 z M 181.00 135.00 L 181.00 138.00 L 187.00 138.00 L 196.00 143.00 L 194.00 147.00 L 181.00 153.00 L 181.00 156.00 L 176.00 158.00 L 177.00 159.00 L 169.00 160.00 L 169.00 161.00 L 168.00 161.00 L 168.00 160.00 L 169.00 160.00 L 176.00 158.00 L 175.00 156.00 L 181.00 153.00 L 181.00 138.00 L 172.00 138.00 L 177.00 132.00 z M 198.00 161.00 L 190.00 161.00 L 191.00 157.00 L 200.00 156.00 z M 252.00 141.00 L 252.00 142.00 L 246.00 149.00 L 246.00 152.00 L 243.00 154.00 L 245.00 157.00 L 245.00 160.00 L 238.00 160.00 L 238.00 159.00 L 240.00 156.00 L 243.00 154.00 L 243.00 153.00 L 246.00 149.00 L 247.00 142.00 L 247.00 141.00 z M 177.00 160.00 L 177.00 159.00 L 178.00 159.00 z M 253.00 141.00 L 252.00 141.00 L 256.00 142.00 L 258.00 142.00 L 252.00 146.00 L 253.00 155.00 L 247.00 160.00 L 245.00 157.00 L 246.00 152.00 L 252.00 146.00 L 252.00 140.00 z M 266.00 145.00 L 262.00 148.00 L 253.00 159.00 L 253.00 160.00 L 252.00 160.00 L 253.00 159.00 L 253.00 155.00 L 262.00 148.00 L 264.00 144.00 z M 271.00 147.00 L 274.00 155.00 L 269.00 160.00 L 256.00 160.00 L 271.00 146.00 z M 290.00 160.00 L 290.00 159.00 L 291.00 159.00 z M 290.00 159.00 L 287.00 159.00 L 289.00 157.00 z M 300.00 145.00 L 298.00 147.00 L 299.00 150.00 L 297.00 152.00 L 297.00 153.00 L 296.00 155.00 L 298.00 155.00 L 298.00 159.00 L 294.00 159.00 L 293.00 157.00 L 296.00 155.00 L 295.00 154.00 L 297.00 152.00 L 297.00 148.00 L 298.00 147.00 L 297.00 146.00 L 296.00 141.00 L 299.00 141.00 z M 304.00 157.00 L 305.00 159.00 L 304.00 159.00 L 302.00 157.00 z M 48.00 159.00 L 47.00 159.00 L 47.00 158.00 z M 234.00 146.00 L 223.00 157.00 L 224.00 159.00 L 222.00 158.00 L 223.00 157.00 L 223.00 156.00 L 234.00 143.00 L 235.00 146.00 z M 235.00 131.00 L 231.00 133.00 L 234.00 134.00 L 231.00 139.00 L 228.00 140.00 L 231.00 140.00 L 222.00 155.00 L 223.00 156.00 L 222.00 158.00 L 221.00 157.00 L 222.00 155.00 L 218.00 144.00 L 228.00 140.00 L 219.00 140.00 L 231.00 133.00 L 226.00 132.00 L 234.00 128.00 z M 181.00 157.00 L 181.00 156.00 L 184.00 155.00 z M 401.00 133.00 L 372.00 155.00 L 375.00 147.00 L 378.00 141.00 L 391.00 129.00 z M 297.00 146.00 L 297.00 148.00 L 292.00 153.00 L 290.00 153.00 L 288.00 149.00 L 295.00 142.00 z M 76.00 152.00 L 76.00 140.00 L 77.00 139.00 L 77.00 152.00 z M 329.00 106.00 L 318.00 102.00 L 324.00 98.00 L 337.00 100.00 L 339.00 100.00 L 335.00 104.00 L 329.00 106.00 L 332.00 108.00 L 330.00 108.00 L 331.00 107.00 L 329.00 107.00 L 330.00 108.00 L 321.00 117.00 L 324.00 117.00 L 302.00 142.00 L 305.00 142.00 L 301.00 147.00 L 301.00 149.00 L 299.00 151.00 L 299.00 150.00 L 301.00 147.00 L 300.00 145.00 L 302.00 142.00 L 299.00 141.00 L 298.00 139.00 L 321.00 117.00 L 302.00 115.00 L 326.00 107.00 L 328.00 107.00 z M 94.00 128.00 L 93.00 129.00 L 94.00 138.00 L 95.00 138.00 L 94.00 141.00 L 94.00 149.00 L 95.00 151.00 L 94.00 151.00 L 94.00 149.00 L 91.00 144.00 L 94.00 141.00 L 94.00 138.00 L 88.00 138.00 L 86.00 133.00 L 93.00 129.00 L 93.00 126.00 z M 236.00 145.00 L 236.00 150.00 L 235.00 148.00 L 236.00 146.00 L 236.00 144.00 L 238.00 142.00 L 238.00 141.00 L 239.00 141.00 L 237.00 143.00 z M 282.00 150.00 L 281.00 150.00 L 282.00 149.00 z M 199.00 145.00 L 196.00 146.00 L 195.00 148.00 L 193.00 149.00 L 194.00 147.00 L 196.00 146.00 L 196.00 144.00 z M 200.00 145.00 L 200.00 146.00 L 204.00 148.00 L 202.00 149.00 L 200.00 146.00 L 199.00 145.00 L 200.00 145.00 L 199.00 144.00 L 202.00 143.00 z M 215.00 136.00 L 214.00 137.00 L 210.00 139.00 L 213.00 140.00 L 209.00 146.00 L 207.00 147.00 L 204.00 148.00 L 204.00 142.00 L 210.00 139.00 L 207.00 139.00 L 214.00 135.00 z M 88.00 138.00 L 91.00 144.00 L 89.00 147.00 L 85.00 138.00 z M 216.00 142.00 L 208.00 146.00 L 208.00 147.00 L 215.00 140.00 z M 287.00 132.00 L 288.00 129.00 L 287.00 127.00 L 289.00 126.00 L 291.00 119.00 L 292.00 119.00 L 291.00 124.00 L 289.00 126.00 L 288.00 129.00 L 289.00 130.00 L 287.00 132.00 L 285.00 138.00 L 288.00 139.00 L 287.00 145.00 L 287.00 147.00 L 286.00 147.00 L 287.00 145.00 L 285.00 139.00 L 285.00 136.00 z M 218.00 144.00 L 216.00 144.00 L 216.00 142.00 L 217.00 141.00 z M 203.00 126.00 L 198.00 139.00 L 204.00 139.00 L 204.00 140.00 L 199.00 144.00 L 198.00 141.00 L 198.00 139.00 L 197.00 139.00 L 202.00 126.00 z M 235.00 143.00 L 234.00 142.00 L 235.00 141.00 z M 330.00 117.00 L 307.00 143.00 L 305.00 142.00 L 326.00 117.00 z M 151.00 141.00 L 152.00 140.00 L 156.00 138.00 L 156.00 137.00 L 160.00 137.00 L 156.00 138.00 L 156.00 142.00 z M 153.00 137.00 L 152.00 140.00 L 148.00 141.00 L 141.00 141.00 L 141.00 136.00 z M 119.00 140.00 L 120.00 141.00 L 118.00 140.00 z M 139.00 123.00 L 138.00 132.00 L 136.00 141.00 L 131.00 140.00 L 124.00 136.00 L 128.00 126.00 L 133.00 121.00 L 137.00 122.00 L 136.00 124.00 L 139.00 123.00 L 139.00 122.00 L 140.00 123.00 z M 235.00 141.00 L 231.00 140.00 L 231.00 139.00 L 235.00 138.00 z M 197.00 139.00 L 197.00 140.00 L 196.00 139.00 z M 127.00 140.00 L 123.00 140.00 L 124.00 137.00 z M 216.00 139.00 L 215.00 137.00 L 221.00 134.00 z M 271.00 136.00 L 269.00 139.00 L 267.00 135.00 z M 377.00 139.00 L 364.00 122.00 L 365.00 120.00 L 381.00 126.00 z M 248.00 131.00 L 248.00 129.00 L 252.00 130.00 L 250.00 131.00 L 252.00 132.00 L 247.00 134.00 L 247.00 139.00 L 244.00 137.00 L 250.00 131.00 z M 101.00 139.00 L 95.00 138.00 L 98.00 134.00 z M 285.00 136.00 L 285.00 138.00 L 281.00 138.00 L 284.00 135.00 z M 86.00 133.00 L 83.00 135.00 L 78.00 124.00 L 77.00 134.00 L 78.00 138.00 L 77.00 138.00 L 77.00 116.00 z M 75.00 112.00 L 77.00 115.00 L 75.00 115.00 L 77.00 129.00 L 76.00 137.00 L 73.00 137.00 L 70.00 135.00 L 65.00 116.00 L 75.00 115.00 L 75.00 112.00 L 73.00 111.00 L 74.00 110.00 z M 164.00 135.00 L 159.00 137.00 L 160.00 137.00 L 158.00 124.00 L 159.00 123.00 z M 240.00 136.00 L 239.00 136.00 L 241.00 134.00 z M 37.00 135.00 L 35.00 135.00 L 30.00 127.00 L 34.00 125.00 z M 248.00 131.00 L 248.00 133.00 L 244.00 135.00 L 247.00 131.00 z M 256.00 130.00 L 255.00 131.00 L 253.00 132.00 L 254.00 132.00 L 252.00 135.00 L 252.00 130.00 z M 266.00 131.00 L 268.00 131.00 L 267.00 133.00 L 266.00 131.00 L 261.00 130.00 L 263.00 128.00 L 265.00 128.00 z M 107.00 120.00 L 107.00 119.00 L 108.00 120.00 L 129.00 121.00 L 128.00 126.00 L 120.00 132.00 L 108.00 120.00 z M 235.00 132.00 L 235.00 131.00 L 237.00 130.00 z M 289.00 131.00 L 289.00 130.00 L 290.00 130.00 z M 215.00 130.00 L 215.00 128.00 L 211.00 127.00 L 214.00 127.00 L 216.00 129.00 z M 292.00 115.00 L 291.00 119.00 L 284.00 121.00 L 287.00 127.00 L 283.00 130.00 L 281.00 122.00 L 284.00 121.00 L 283.00 119.00 L 287.00 114.00 z M 239.00 125.00 L 246.00 122.00 L 244.00 126.00 L 239.00 129.00 L 243.00 129.00 L 243.00 130.00 L 238.00 129.00 L 237.00 129.00 z M 263.00 121.00 L 264.00 126.00 L 263.00 128.00 L 258.00 130.00 L 256.00 130.00 L 263.00 121.00 L 262.00 120.00 L 269.00 113.00 z M 248.00 126.00 L 245.00 129.00 L 243.00 129.00 L 244.00 126.00 L 249.00 123.00 z M 252.00 124.00 L 248.00 129.00 L 248.00 126.00 L 252.00 121.00 z M 234.00 121.00 L 246.00 113.00 L 239.00 125.00 L 234.00 128.00 L 236.00 129.00 L 233.00 128.00 L 235.00 128.00 z M 30.00 127.00 L 25.00 128.00 L 24.00 119.00 z M 226.00 127.00 L 233.00 122.00 L 234.00 121.00 L 234.00 113.00 L 236.00 111.00 L 243.00 111.00 L 234.00 121.00 L 228.00 127.00 z M 220.00 125.00 L 218.00 127.00 L 214.00 127.00 L 214.00 124.00 z M 221.00 126.00 L 220.00 125.00 L 223.00 122.00 z M 104.00 119.00 L 105.00 121.00 L 103.00 122.00 L 104.00 124.00 L 103.00 125.00 L 101.00 123.00 L 103.00 122.00 L 99.00 119.00 z M 203.00 124.00 L 204.00 122.00 L 199.00 121.00 L 204.00 119.00 L 204.00 116.00 L 206.00 115.00 L 205.00 119.00 L 204.00 119.00 L 204.00 125.00 z M 182.00 113.00 L 182.00 114.00 L 180.00 114.00 L 180.00 117.00 L 184.00 118.00 L 186.00 121.00 L 182.00 125.00 L 180.00 125.00 L 180.00 117.00 L 173.00 116.00 L 180.00 114.00 L 180.00 113.00 z M 145.00 112.00 L 145.00 111.00 L 146.00 110.00 L 145.00 110.00 L 147.00 104.00 L 146.00 104.00 L 147.00 101.00 L 144.00 95.00 L 147.00 93.00 L 150.00 95.00 L 149.00 98.00 L 147.00 101.00 L 148.00 102.00 L 147.00 104.00 L 149.00 105.00 L 150.00 106.00 L 146.00 110.00 L 151.00 111.00 L 145.00 112.00 L 141.00 122.00 L 144.00 122.00 L 141.00 123.00 L 141.00 122.00 L 139.00 122.00 L 139.00 117.00 L 144.00 112.00 z M 159.00 123.00 L 158.00 123.00 L 158.00 122.00 z M 99.00 119.00 L 100.00 122.00 L 97.00 119.00 z M 279.00 114.00 L 281.00 114.00 L 283.00 119.00 L 281.00 122.00 L 279.00 114.00 L 276.00 114.00 L 278.00 110.00 L 278.00 109.00 z M 47.00 120.00 L 42.00 117.00 L 58.00 116.00 z M 154.00 120.00 L 153.00 120.00 L 153.00 119.00 z M 204.00 116.00 L 196.00 120.00 L 192.00 120.00 L 188.00 117.00 L 193.00 111.00 L 204.00 109.00 z M 89.00 59.00 L 126.00 65.00 L 129.00 71.00 L 115.00 74.00 L 131.00 83.00 L 125.00 91.00 L 99.00 101.00 L 117.00 104.00 L 111.00 113.00 L 103.00 114.00 L 108.00 119.00 L 107.00 120.00 L 104.00 119.00 L 98.00 115.00 L 98.00 114.00 L 103.00 114.00 L 97.00 108.00 L 96.00 102.00 L 99.00 101.00 L 95.00 100.00 L 92.00 82.00 L 92.00 100.00 L 95.00 100.00 L 96.00 102.00 L 93.00 103.00 L 92.00 100.00 L 88.00 99.00 L 78.00 88.00 L 79.00 82.00 L 115.00 74.00 L 89.00 59.00 L 80.00 57.00 L 80.00 53.00 z M 346.00 101.00 L 338.00 103.00 L 334.00 108.00 L 337.00 110.00 L 349.00 114.00 L 345.00 119.00 L 330.00 117.00 L 337.00 110.00 L 333.00 109.00 L 334.00 108.00 L 332.00 108.00 L 335.00 104.00 L 338.00 103.00 L 340.00 100.00 z M 173.00 116.00 L 161.00 118.00 L 163.00 114.00 z M 207.00 116.00 L 208.00 118.00 L 206.00 118.00 L 207.00 116.00 L 207.00 115.00 L 208.00 114.00 z M 262.00 112.00 L 260.00 114.00 L 261.00 115.00 L 259.00 116.00 L 260.00 114.00 L 259.00 112.00 z M 141.00 115.00 L 139.00 116.00 L 139.00 112.00 L 142.00 112.00 z M 31.00 115.00 L 24.00 108.00 L 21.00 78.00 z M 302.00 115.00 L 294.00 115.00 L 294.00 108.00 L 312.00 107.00 z M 93.00 111.00 L 93.00 113.00 L 94.00 114.00 L 93.00 114.00 L 93.00 113.00 L 86.00 106.00 z M 193.00 111.00 L 182.00 114.00 L 182.00 113.00 L 180.00 111.00 L 180.00 110.00 L 195.00 109.00 z M 73.00 96.00 L 78.00 103.00 L 78.00 109.00 L 74.00 110.00 L 74.00 109.00 z M 139.00 88.00 L 135.00 101.00 L 127.00 106.00 L 133.00 108.00 L 132.00 112.00 L 117.00 113.00 L 127.00 106.00 L 117.00 104.00 L 125.00 91.00 L 137.00 87.00 z M 275.00 113.00 L 269.00 113.00 L 271.00 111.00 L 274.00 109.00 L 276.00 108.00 L 278.00 108.00 L 278.00 110.00 z M 273.00 108.00 L 272.00 110.00 L 266.00 113.00 L 262.00 112.00 L 263.00 111.00 L 260.00 111.00 L 263.00 108.00 L 273.00 108.00 L 276.00 104.00 L 277.00 106.00 L 275.00 108.00 z M 251.00 112.00 L 250.00 112.00 L 250.00 111.00 L 251.00 110.00 z M 156.00 105.00 L 157.00 111.00 L 152.00 111.00 L 150.00 106.00 L 152.00 105.00 z M 249.00 108.00 L 246.00 108.00 L 245.00 110.00 L 248.00 110.00 L 247.00 111.00 L 243.00 111.00 L 245.00 110.00 L 237.00 110.00 L 239.00 109.00 L 246.00 108.00 L 248.00 106.00 L 250.00 106.00 z M 251.00 110.00 L 250.00 110.00 L 251.00 108.00 z M 141.00 90.00 L 144.00 95.00 L 140.00 98.00 L 140.00 104.00 L 138.00 104.00 L 138.00 109.00 L 133.00 108.00 L 135.00 101.00 L 140.00 98.00 L 141.00 89.00 z M 204.00 109.00 L 204.00 108.00 L 205.00 108.00 z M 274.00 109.00 L 273.00 109.00 L 275.00 108.00 z M 86.00 106.00 L 81.00 108.00 L 78.00 103.00 L 78.00 99.00 z M 251.00 108.00 L 250.00 108.00 L 250.00 106.00 L 251.00 106.00 z M 293.00 100.00 L 282.00 105.00 L 279.00 108.00 L 280.00 106.00 L 282.00 105.00 L 284.00 103.00 L 293.00 97.00 z M 294.00 108.00 L 292.00 108.00 L 294.00 105.00 z M 201.00 101.00 L 196.00 107.00 L 180.00 106.00 L 180.00 81.00 L 182.00 79.00 L 191.00 76.00 z M 204.00 107.00 L 201.00 101.00 L 204.00 96.00 z M 232.00 82.00 L 233.00 101.00 L 228.00 103.00 L 213.00 107.00 L 213.00 101.00 L 220.00 81.00 z M 251.00 104.00 L 248.00 106.00 L 241.00 107.00 L 245.00 103.00 L 251.00 101.00 z M 278.00 106.00 L 277.00 107.00 L 277.00 106.00 L 278.00 105.00 z M 280.00 106.00 L 278.00 107.00 L 278.00 106.00 L 281.00 104.00 z M 294.00 105.00 L 293.00 100.00 L 295.00 99.00 z M 254.00 100.00 L 251.00 103.00 L 251.00 100.00 L 254.00 99.00 z M 304.00 94.00 L 301.00 96.00 L 318.00 102.00 L 317.00 103.00 L 301.00 97.00 L 302.00 96.00 L 301.00 96.00 L 303.00 94.00 z M 224.00 68.00 L 231.00 70.00 L 231.00 72.00 L 248.00 78.00 L 249.00 81.00 L 247.00 85.00 L 250.00 85.00 L 252.00 90.00 L 239.00 97.00 L 236.00 101.00 L 233.00 102.00 L 233.00 101.00 L 239.00 97.00 L 247.00 85.00 L 232.00 82.00 L 231.00 72.00 L 223.00 70.00 L 224.00 68.00 L 219.00 66.00 L 225.00 64.00 z M 367.00 97.00 L 367.00 102.00 L 365.00 102.00 L 367.00 97.00 L 368.00 93.00 L 362.00 95.00 L 358.00 101.00 L 349.00 101.00 L 348.00 100.00 L 362.00 95.00 L 390.00 56.00 z M 348.00 100.00 L 345.00 101.00 L 346.00 101.00 L 348.00 98.00 z M 168.00 91.00 L 158.00 99.00 L 156.00 98.00 L 155.00 90.00 L 165.00 86.00 z M 219.00 80.00 L 212.00 98.00 L 211.00 87.00 L 217.00 80.00 z M 75.00 96.00 L 77.00 98.00 L 74.00 96.00 z M 262.00 87.00 L 260.00 89.00 L 255.00 98.00 L 253.00 95.00 L 260.00 89.00 L 261.00 87.00 z M 80.00 57.00 L 79.00 82.00 L 74.00 83.00 L 78.00 88.00 L 78.00 97.00 L 75.00 96.00 L 72.00 93.00 L 71.00 84.00 L 74.00 83.00 L 71.00 80.00 L 71.00 84.00 L 69.00 84.00 L 78.00 57.00 z M 298.00 95.00 L 301.00 96.00 L 302.00 96.00 L 299.00 97.00 L 297.00 96.00 L 298.00 95.00 L 297.00 95.00 L 298.00 94.00 z M 274.00 95.00 L 272.00 96.00 L 270.00 93.00 L 278.00 90.00 z M 162.00 79.00 L 157.00 81.00 L 154.00 86.00 L 155.00 90.00 L 152.00 91.00 L 150.00 95.00 L 151.00 91.00 L 152.00 91.00 L 154.00 86.00 L 154.00 81.00 L 157.00 81.00 L 158.00 79.00 L 154.00 81.00 L 154.00 80.00 L 157.00 71.00 z M 296.00 93.00 L 296.00 94.00 L 293.00 93.00 z M 292.00 92.00 L 292.00 93.00 L 293.00 93.00 L 293.00 94.00 L 291.00 94.00 L 292.00 93.00 L 291.00 92.00 z M 299.00 90.00 L 298.00 94.00 L 296.00 93.00 L 297.00 89.00 z M 290.00 93.00 L 286.00 92.00 L 291.00 92.00 z M 54.00 80.00 L 58.00 92.00 L 37.00 67.00 z M 70.00 92.00 L 67.00 88.00 L 67.00 87.00 z M 306.00 90.00 L 303.00 92.00 L 299.00 90.00 L 301.00 83.00 L 305.00 79.00 L 318.00 74.00 z M 67.00 88.00 L 66.00 90.00 L 63.00 88.00 L 62.00 86.00 L 64.00 85.00 z M 269.00 86.00 L 278.00 89.00 L 278.00 90.00 L 268.00 88.00 L 267.00 87.00 L 269.00 86.00 L 266.00 85.00 L 265.00 84.00 L 266.00 83.00 L 270.00 85.00 z M 281.00 89.00 L 286.00 87.00 L 282.00 89.00 z M 301.00 83.00 L 297.00 86.00 L 298.00 85.00 L 302.00 80.00 z M 251.00 78.00 L 250.00 79.00 L 253.00 80.00 L 252.00 86.00 L 250.00 85.00 L 249.00 81.00 L 250.00 79.00 L 248.00 78.00 L 247.00 76.00 z M 187.00 75.00 L 182.00 79.00 L 180.00 80.00 L 180.00 81.00 L 175.00 85.00 L 176.00 81.00 L 180.00 80.00 L 180.00 75.00 L 182.00 74.00 z M 264.00 84.00 L 262.00 85.00 L 263.00 84.00 z M 292.00 84.00 L 290.00 85.00 L 292.00 83.00 z M 265.00 84.00 L 264.00 84.00 L 265.00 83.00 z M 302.00 59.00 L 299.00 65.00 L 277.00 77.00 L 273.00 81.00 L 271.00 80.00 L 277.00 77.00 L 304.00 50.00 z M 180.00 75.00 L 179.00 75.00 L 180.00 74.00 z M 331.00 75.00 L 328.00 70.00 L 366.00 55.00 z M 255.00 63.00 L 254.00 73.00 L 253.00 74.00 L 245.00 71.00 L 241.00 60.00 L 252.00 57.00 z M 180.00 74.00 L 146.00 68.00 L 146.00 67.00 L 172.00 61.00 L 179.00 60.00 z M 141.00 67.00 L 140.00 68.00 L 132.00 70.00 L 129.00 65.00 z M 210.00 68.00 L 205.00 70.00 L 205.00 68.00 L 210.00 67.00 z M 257.00 68.00 L 255.00 63.00 L 256.00 55.00 L 263.00 53.00 L 267.00 52.00 z M 241.00 60.00 L 231.00 63.00 L 231.00 66.00 L 225.00 64.00 L 231.00 63.00 L 230.00 62.00 L 241.00 59.00 z M 338.00 48.00 L 325.00 61.00 L 322.00 62.00 L 317.00 56.00 L 328.00 50.00 L 332.00 48.00 z M 209.00 54.00 L 209.00 56.00 L 207.00 58.00 L 209.00 59.00 L 210.00 62.00 L 205.00 61.00 L 205.00 60.00 L 207.00 58.00 L 205.00 57.00 L 205.00 55.00 L 212.00 53.00 z M 194.00 57.00 L 186.00 58.00 L 185.00 61.00 L 184.00 59.00 L 186.00 58.00 L 188.00 54.00 z M 247.00 47.00 L 237.00 49.00 L 240.00 56.00 L 230.00 60.00 L 230.00 51.00 L 231.00 50.00 L 237.00 49.00 L 237.00 48.00 L 246.00 47.00 z M 205.00 30.00 L 205.00 55.00 L 200.00 56.00 L 189.00 52.00 L 199.00 29.00 z M 342.00 49.00 L 332.00 55.00 L 338.00 48.00 z M 237.00 48.00 L 231.00 50.00 L 234.00 40.00 z M 232.00 34.00 L 233.00 35.00 L 229.00 39.00 L 229.00 33.00 z"
 style="fill:#80ff9c; fill-opacity:0.67; fill-rule:evenodd; stroke:#003300; stroke-opacity:1.00; stroke-width:0.80;"/>

</svg>
